REM DIRINDEX 1\2,1\3,1\4,1\5,1\6
REM DIRNAME cjc030,folder01,folder02,folder03,folder04,folder05
TITLE ""
FILE "Disc6Track12.mp3" MP3
  TRACK 01 AUDIO
    TITLE "3:cjc030_10772"
    INDEX 01 00:00:00
  TRACK 02 AUDIO
    TITLE "0:"
    INDEX 01 00:01:01
  TRACK 03 AUDIO
    TITLE "4:cjc030_10773"
    INDEX 01 00:01:11
  TRACK 04 AUDIO
    TITLE "0:"
    INDEX 01 00:03:08
  TRACK 05 AUDIO
    TITLE "5:cjc030_10774"
    INDEX 01 00:03:17
  TRACK 06 AUDIO
    TITLE "0:"
    INDEX 01 00:04:23
  TRACK 07 AUDIO
    TITLE "6:cjc030_10775"
    INDEX 01 00:04:35
  TRACK 08 AUDIO
    TITLE "0:"
    INDEX 01 00:06:14
  TRACK 09 AUDIO
    TITLE "3:cjc030_10776"
    INDEX 01 00:06:63
  TRACK 10 AUDIO
    TITLE "0:"
    INDEX 01 00:07:66
  TRACK 11 AUDIO
    TITLE "4:cjc030_10777"
    INDEX 01 00:08:03
  TRACK 12 AUDIO
    TITLE "0:"
    INDEX 01 00:09:57
  TRACK 13 AUDIO
    TITLE "5:cjc030_10778"
    INDEX 01 00:09:65
  TRACK 14 AUDIO
    TITLE "0:"
    INDEX 01 00:10:72
  TRACK 15 AUDIO
    TITLE "6:cjc030_10779"
    INDEX 01 00:11:09
  TRACK 16 AUDIO
    TITLE "0:"
    INDEX 01 00:15:15
  TRACK 17 AUDIO
    TITLE "3:cjc030_10780"
    INDEX 01 00:15:62
  TRACK 18 AUDIO
    TITLE "0:"
    INDEX 01 00:16:57
  TRACK 19 AUDIO
    TITLE "4:cjc030_10781"
    INDEX 01 00:16:67
  TRACK 20 AUDIO
    TITLE "0:"
    INDEX 01 00:19:30
  TRACK 21 AUDIO
    TITLE "5:cjc030_10782"
    INDEX 01 00:19:36
  TRACK 22 AUDIO
    TITLE "0:"
    INDEX 01 00:20:41
  TRACK 23 AUDIO
    TITLE "6:cjc030_10783"
    INDEX 01 00:20:53
  TRACK 24 AUDIO
    TITLE "0:"
    INDEX 01 00:24:74
  TRACK 25 AUDIO
    TITLE "3:cjc030_10784"
    INDEX 01 00:25:46
  TRACK 26 AUDIO
    TITLE "0:"
    INDEX 01 00:26:62
  TRACK 27 AUDIO
    TITLE "4:cjc030_10785"
    INDEX 01 00:26:71
  TRACK 28 AUDIO
    TITLE "0:"
    INDEX 01 00:32:07
  TRACK 29 AUDIO
    TITLE "5:cjc030_10786"
    INDEX 01 00:32:17
  TRACK 30 AUDIO
    TITLE "0:"
    INDEX 01 00:33:32
  TRACK 31 AUDIO
    TITLE "6:cjc030_10787"
    INDEX 01 00:33:44
  TRACK 32 AUDIO
    TITLE "0:"
    INDEX 01 00:35:39
  TRACK 33 AUDIO
    TITLE "3:cjc030_10788"
    INDEX 01 00:36:11
  TRACK 34 AUDIO
    TITLE "0:"
    INDEX 01 00:37:16
  TRACK 35 AUDIO
    TITLE "4:cjc030_10789"
    INDEX 01 00:37:28
  TRACK 36 AUDIO
    TITLE "0:"
    INDEX 01 00:38:16
  TRACK 37 AUDIO
    TITLE "5:cjc030_10790"
    INDEX 01 00:38:24
  TRACK 38 AUDIO
    TITLE "0:"
    INDEX 01 00:39:33
  TRACK 39 AUDIO
    TITLE "3:cjc030_10791"
    INDEX 01 00:40:05
  TRACK 40 AUDIO
    TITLE "0:"
    INDEX 01 00:41:22
  TRACK 41 AUDIO
    TITLE "4:cjc030_10792"
    INDEX 01 00:41:30
  TRACK 42 AUDIO
    TITLE "0:"
    INDEX 01 00:43:48
  TRACK 43 AUDIO
    TITLE "5:cjc030_10793"
    INDEX 01 00:43:58
  TRACK 44 AUDIO
    TITLE "0:"
    INDEX 01 00:45:02
  TRACK 45 AUDIO
    TITLE "3:cjc030_10794"
    INDEX 01 00:45:57
  TRACK 46 AUDIO
    TITLE "0:"
    INDEX 01 00:46:68
  TRACK 47 AUDIO
    TITLE "4:cjc030_10795"
    INDEX 01 00:47:03
  TRACK 48 AUDIO
    TITLE "0:"
    INDEX 01 00:48:69
  TRACK 49 AUDIO
    TITLE "5:cjc030_10796"
    INDEX 01 00:49:02
  TRACK 50 AUDIO
    TITLE "0:"
    INDEX 01 00:50:15
  TRACK 51 AUDIO
    TITLE "6:cjc030_10797"
    INDEX 01 00:50:27
  TRACK 52 AUDIO
    TITLE "0:"
    INDEX 01 00:52:30
  TRACK 53 AUDIO
    TITLE "3:cjc030_10798"
    INDEX 01 00:53:02
  TRACK 54 AUDIO
    TITLE "0:"
    INDEX 01 00:54:01
  TRACK 55 AUDIO
    TITLE "4:cjc030_10799"
    INDEX 01 00:54:11
  TRACK 56 AUDIO
    TITLE "0:"
    INDEX 01 00:56:69
  TRACK 57 AUDIO
    TITLE "5:cjc030_10800"
    INDEX 01 00:57:03
  TRACK 58 AUDIO
    TITLE "0:"
    INDEX 01 00:58:03
  TRACK 59 AUDIO
    TITLE "6:cjc030_10801"
    INDEX 01 00:58:17
  TRACK 60 AUDIO
    TITLE "0:"
    INDEX 01 00:59:63
  TRACK 61 AUDIO
    TITLE "3:cjc030_10802"
    INDEX 01 01:00:35
  TRACK 62 AUDIO
    TITLE "0:"
    INDEX 01 01:01:38
  TRACK 63 AUDIO
    TITLE "4:cjc030_10803"
    INDEX 01 01:01:50
  TRACK 64 AUDIO
    TITLE "0:"
    INDEX 01 01:02:44
  TRACK 65 AUDIO
    TITLE "5:cjc030_10804"
    INDEX 01 01:02:55
  TRACK 66 AUDIO
    TITLE "0:"
    INDEX 01 01:03:57
  TRACK 67 AUDIO
    TITLE "3:cjc030_10805"
    INDEX 01 01:04:27
  TRACK 68 AUDIO
    TITLE "0:"
    INDEX 01 01:05:30
  TRACK 69 AUDIO
    TITLE "4:cjc030_10806"
    INDEX 01 01:05:42
  TRACK 70 AUDIO
    TITLE "0:"
    INDEX 01 01:06:36
  TRACK 71 AUDIO
    TITLE "5:cjc030_10807"
    INDEX 01 01:06:47
  TRACK 72 AUDIO
    TITLE "0:"
    INDEX 01 01:07:51
  TRACK 73 AUDIO
    TITLE "6:cjc030_10808"
    INDEX 01 01:07:63
  TRACK 74 AUDIO
    TITLE "0:"
    INDEX 01 01:09:32
